<svg xmlns="http://www.w3.org/2000/svg" xmlns:xlink="http://www.w3.org/1999/xlink" version="1.1" width="1000" height="1000" viewBox="0 0 1000 1000" xml:space="preserve">
<desc>Created with Fabric.js 3.5.0</desc>
<defs>
</defs>
<rect x="0" y="0" width="100%" height="100%" fill="#ffffff"/>
<g transform="matrix(1.1621 0 0 1.1621 541.4976 541.4976)" id="880871">
<g style="" vector-effect="non-scaling-stroke">
		<g transform="matrix(1 0 0 1 -160.3823 45.272)" id="Layer_1">
<path style="stroke: none; stroke-width: 1; stroke-dasharray: none; stroke-linecap: butt; stroke-dashoffset: 0; stroke-linejoin: miter; stroke-miterlimit: 4; is-custom-font: none; font-file-url: none; fill: rgb(0,0,0); fill-rule: nonzero; opacity: 1;" transform=" translate(-95.6177, -301.272)" d="M 146.645 109.31 c -54.918 0 -55.673 0 -101.357 0 c -24.466 0 -44.468 19.904 -44.591 44.367 L 0 292.109 c -0.052 10.407 8.342 18.885 18.747 18.938 c 0.032 0 0.065 0 0.098 0 c 10.363 0 18.787 -8.375 18.841 -18.747 l 0.696 -138.432 c 0 -0.016 0 -0.031 0 -0.047 c 0.024 -2.055 1.704 -3.706 3.759 -3.694 c 2.055 0.012 3.715 1.683 3.715 3.738 l 0.008 316.757 c 0 12.488 10.124 22.612 22.612 22.612 s 22.612 -10.124 22.612 -22.612 V 289.888 h 9.763 v 180.734 c 0 12.488 10.123 22.611 22.611 22.611 s 22.611 -10.123 22.611 -22.611 c 0 -298.894 -0.4 -127.966 -0.41 -316.481 c 0 -2.121 1.674 -3.863 3.794 -3.946 c 2.12 -0.083 3.928 1.521 4.092 3.635 c 0 0.001 0 0.002 0 0.002 l -0.128 138.354 c -0.01 10.406 8.419 18.851 18.825 18.861 c 0.007 0 0.011 0 0.018 0 c 10.397 0 18.833 -8.426 18.842 -18.825 l 0.128 -138.431 c 0.002 -0.039 0.002 -0.075 0.001 -0.114 C 191.112 129.214 171.109 109.31 146.645 109.31 z" stroke-linecap="round"/>
</g>
		<g transform="matrix(1 0 0 1 -160.034 -198.187)" id="Layer_1">
<circle style="stroke: none; stroke-width: 1; stroke-dasharray: none; stroke-linecap: butt; stroke-dashoffset: 0; stroke-linejoin: miter; stroke-miterlimit: 4; is-custom-font: none; font-file-url: none; fill: rgb(0,0,0); fill-rule: nonzero; opacity: 1;" cx="0" cy="0" r="39.047"/>
</g>
		<g transform="matrix(1 0 0 1 139.1135 44.941)" id="Layer_1">
<path style="stroke: none; stroke-width: 1; stroke-dasharray: none; stroke-linecap: butt; stroke-dashoffset: 0; stroke-linejoin: miter; stroke-miterlimit: 4; is-custom-font: none; font-file-url: none; fill: rgb(0,0,0); fill-rule: nonzero; opacity: 1;" transform=" translate(-395.1135, -300.941)" d="M 510.941 262.849 c -0.346 -0.986 -34.611 -98.717 -40.002 -114.406 c -8.679 -25.253 -23.23 -38.057 -43.249 -38.057 c -28.025 0 -37.18 0 -65.153 0 c -20.02 0 -34.571 12.805 -43.249 38.057 c -5.391 15.688 -39.656 113.421 -40.002 114.406 c -3.418 9.748 1.714 20.423 11.464 23.841 c 9.758 3.42 20.425 -1.725 23.84 -11.462 c 1.106 -3.154 21.721 -60.433 33.222 -93.389 c -1.204 9.838 2.264 -10.578 -26.737 139.154 c -1.246 6.431 3.711 12.379 10.201 12.379 c 4.029 0 8.862 0 14.273 0 v 135.678 c 0 12.396 10.049 22.446 22.446 22.446 c 12.397 0 22.446 -10.049 22.446 -22.446 v -135.68 c 3.227 0 6.465 0 9.692 0 v 135.68 c 0 12.396 10.049 22.446 22.446 22.446 c 12.397 0 22.446 -10.049 22.446 -22.446 v -135.68 c 5.411 0 10.245 0 14.273 0 c 6.522 0 11.446 -5.952 10.201 -12.379 c -28.737 -148.369 -25.57 -131.138 -26.55 -139.154 c 11.593 33.211 31.602 90.284 32.691 93.389 c 3.421 9.756 14.101 14.878 23.84 11.462 C 509.227 283.27 514.359 272.597 510.941 262.849 z" stroke-linecap="round"/>
</g>
		<g transform="matrix(1 0 0 1 139.283 -196.735)" id="Layer_1">
<circle style="stroke: none; stroke-width: 1; stroke-dasharray: none; stroke-linecap: butt; stroke-dashoffset: 0; stroke-linejoin: miter; stroke-miterlimit: 4; is-custom-font: none; font-file-url: none; fill: rgb(0,0,0); fill-rule: nonzero; opacity: 1;" cx="0" cy="0" r="38.767"/>
</g>
		<g transform="matrix(1 0 0 1 -16.239 -0.0045)" id="Layer_1">
<path style="stroke: none; stroke-width: 1; stroke-dasharray: none; stroke-linecap: butt; stroke-dashoffset: 0; stroke-linejoin: miter; stroke-miterlimit: 4; is-custom-font: none; font-file-url: none; fill: rgb(0,0,0); fill-rule: nonzero; opacity: 1;" transform=" translate(-239.761, -255.9955)" d="M 239.761 43.925 c -7.969 0 -14.43 6.46 -14.43 14.43 v 395.282 c 0 7.969 6.46 14.429 14.43 14.429 c 7.97 0 14.43 -6.459 14.43 -14.429 V 58.355 C 254.191 50.385 247.73 43.925 239.761 43.925 z" stroke-linecap="round"/>
</g>
</g>
</g>
</svg>